<?xml version="1.0" encoding="UTF-8" standalone="no"?>
<!DOCTYPE svg PUBLIC "-//W3C//DTD SVG 1.1//EN"
 "http://www.w3.org/Graphics/SVG/1.1/DTD/svg11.dtd">
<!-- Generated by graphviz version 2.40.1 (20161225.0304)
 -->
<!-- Title: G Pages: 1 -->
<svg width="449pt" height="784pt"
 viewBox="0.00 0.00 448.79 784.00" xmlns="http://www.w3.org/2000/svg" xmlns:xlink="http://www.w3.org/1999/xlink">
<g id="graph0" class="graph" transform="scale(1 1) rotate(0) translate(4 780)">
<title>G</title>
<polygon fill="#ffffff" stroke="transparent" points="-4,4 -4,-780 444.7855,-780 444.7855,4 -4,4"/>
<g id="clust1" class="cluster">
<title>cluster_Global</title>
<path fill="none" stroke="#c0c0c0" d="M35.4458,-152C35.4458,-152 420.7855,-152 420.7855,-152 426.7855,-152 432.7855,-158 432.7855,-164 432.7855,-164 432.7855,-756 432.7855,-756 432.7855,-762 426.7855,-768 420.7855,-768 420.7855,-768 35.4458,-768 35.4458,-768 29.4458,-768 23.4458,-762 23.4458,-756 23.4458,-756 23.4458,-164 23.4458,-164 23.4458,-158 29.4458,-152 35.4458,-152"/>
<text text-anchor="middle" x="228.1156" y="-755.2" font-family="Times,serif" font-size="11.00" fill="#c0c0c0">Global</text>
</g>
<g id="clust2" class="cluster">
<title>cluster_\Assets</title>
<path fill="none" stroke="#c0c0c0" d="M223.7855,-160C223.7855,-160 412.7855,-160 412.7855,-160 418.7855,-160 424.7855,-166 424.7855,-172 424.7855,-172 424.7855,-728 424.7855,-728 424.7855,-734 418.7855,-740 412.7855,-740 412.7855,-740 223.7855,-740 223.7855,-740 217.7855,-740 211.7855,-734 211.7855,-728 211.7855,-728 211.7855,-172 211.7855,-172 211.7855,-166 217.7855,-160 223.7855,-160"/>
<text text-anchor="middle" x="318.2855" y="-727.2" font-family="Times,serif" font-size="11.00" fill="#c0c0c0">Assets</text>
</g>
<g id="clust3" class="cluster">
<title>cluster_\Assets\Routing</title>
<path fill="none" stroke="#c0c0c0" d="M255.2855,-604C255.2855,-604 381.2855,-604 381.2855,-604 387.2855,-604 393.2855,-610 393.2855,-616 393.2855,-616 393.2855,-700 393.2855,-700 393.2855,-706 387.2855,-712 381.2855,-712 381.2855,-712 255.2855,-712 255.2855,-712 249.2855,-712 243.2855,-706 243.2855,-700 243.2855,-700 243.2855,-616 243.2855,-616 243.2855,-610 249.2855,-604 255.2855,-604"/>
<text text-anchor="middle" x="318.2855" y="-699.2" font-family="Times,serif" font-size="11.00" fill="#c0c0c0">Routing</text>
</g>
<g id="clust4" class="cluster">
<title>cluster_\Assets\Routing\Middleware</title>
<path fill="none" stroke="#c0c0c0" d="M263.2855,-612C263.2855,-612 373.2855,-612 373.2855,-612 379.2855,-612 385.2855,-618 385.2855,-624 385.2855,-624 385.2855,-672 385.2855,-672 385.2855,-678 379.2855,-684 373.2855,-684 373.2855,-684 263.2855,-684 263.2855,-684 257.2855,-684 251.2855,-678 251.2855,-672 251.2855,-672 251.2855,-624 251.2855,-624 251.2855,-618 257.2855,-612 263.2855,-612"/>
<text text-anchor="middle" x="318.2855" y="-671.2" font-family="Times,serif" font-size="11.00" fill="#c0c0c0">Middleware</text>
</g>
<g id="clust5" class="cluster">
<title>cluster_\Assets\TestSuite</title>
<path fill="none" stroke="#c0c0c0" d="M280.2855,-524C280.2855,-524 356.2855,-524 356.2855,-524 362.2855,-524 368.2855,-530 368.2855,-536 368.2855,-536 368.2855,-584 368.2855,-584 368.2855,-590 362.2855,-596 356.2855,-596 356.2855,-596 280.2855,-596 280.2855,-596 274.2855,-596 268.2855,-590 268.2855,-584 268.2855,-584 268.2855,-536 268.2855,-536 268.2855,-530 274.2855,-524 280.2855,-524"/>
<text text-anchor="middle" x="318.2855" y="-583.2" font-family="Times,serif" font-size="11.00" fill="#c0c0c0">TestSuite</text>
</g>
<g id="clust6" class="cluster">
<title>cluster_\Assets\Utility</title>
<path fill="none" stroke="#c0c0c0" d="M270.2855,-444C270.2855,-444 366.2855,-444 366.2855,-444 372.2855,-444 378.2855,-450 378.2855,-456 378.2855,-456 378.2855,-504 378.2855,-504 378.2855,-510 372.2855,-516 366.2855,-516 366.2855,-516 270.2855,-516 270.2855,-516 264.2855,-516 258.2855,-510 258.2855,-504 258.2855,-504 258.2855,-456 258.2855,-456 258.2855,-450 264.2855,-444 270.2855,-444"/>
<text text-anchor="middle" x="318.2855" y="-503.2" font-family="Times,serif" font-size="11.00" fill="#c0c0c0">Utility</text>
</g>
<g id="clust7" class="cluster">
<title>cluster_\Assets\Http</title>
<path fill="none" stroke="#c0c0c0" d="M231.7855,-212C231.7855,-212 404.7855,-212 404.7855,-212 410.7855,-212 416.7855,-218 416.7855,-224 416.7855,-224 416.7855,-308 416.7855,-308 416.7855,-314 410.7855,-320 404.7855,-320 404.7855,-320 231.7855,-320 231.7855,-320 225.7855,-320 219.7855,-314 219.7855,-308 219.7855,-308 219.7855,-224 219.7855,-224 219.7855,-218 225.7855,-212 231.7855,-212"/>
<text text-anchor="middle" x="318.2855" y="-307.2" font-family="Times,serif" font-size="11.00" fill="#c0c0c0">Http</text>
</g>
<g id="clust8" class="cluster">
<title>cluster_\Assets\Http\Exception</title>
<path fill="none" stroke="#c0c0c0" d="M239.7855,-220C239.7855,-220 396.7855,-220 396.7855,-220 402.7855,-220 408.7855,-226 408.7855,-232 408.7855,-232 408.7855,-280 408.7855,-280 408.7855,-286 402.7855,-292 396.7855,-292 396.7855,-292 239.7855,-292 239.7855,-292 233.7855,-292 227.7855,-286 227.7855,-280 227.7855,-280 227.7855,-232 227.7855,-232 227.7855,-226 233.7855,-220 239.7855,-220"/>
<text text-anchor="middle" x="318.2855" y="-279.2" font-family="Times,serif" font-size="11.00" fill="#c0c0c0">Exception</text>
</g>
<g id="clust9" class="cluster">
<title>cluster_\Assets\View</title>
<path fill="none" stroke="#c0c0c0" d="M268.7855,-328C268.7855,-328 367.7855,-328 367.7855,-328 373.7855,-328 379.7855,-334 379.7855,-340 379.7855,-340 379.7855,-424 379.7855,-424 379.7855,-430 373.7855,-436 367.7855,-436 367.7855,-436 268.7855,-436 268.7855,-436 262.7855,-436 256.7855,-430 256.7855,-424 256.7855,-424 256.7855,-340 256.7855,-340 256.7855,-334 262.7855,-328 268.7855,-328"/>
<text text-anchor="middle" x="318.2855" y="-423.2" font-family="Times,serif" font-size="11.00" fill="#c0c0c0">View</text>
</g>
<g id="clust10" class="cluster">
<title>cluster_\Assets\View\Helper</title>
<path fill="none" stroke="#c0c0c0" d="M276.7855,-336C276.7855,-336 359.7855,-336 359.7855,-336 365.7855,-336 371.7855,-342 371.7855,-348 371.7855,-348 371.7855,-396 371.7855,-396 371.7855,-402 365.7855,-408 359.7855,-408 359.7855,-408 276.7855,-408 276.7855,-408 270.7855,-408 264.7855,-402 264.7855,-396 264.7855,-396 264.7855,-348 264.7855,-348 264.7855,-342 270.7855,-336 276.7855,-336"/>
<text text-anchor="middle" x="318.2855" y="-395.2" font-family="Times,serif" font-size="11.00" fill="#c0c0c0">Helper</text>
</g>
<g id="clust11" class="cluster">
<title>cluster_Global\Cake</title>
<path fill="none" stroke="#c0c0c0" d="M43.4458,-328C43.4458,-328 120.3397,-328 120.3397,-328 126.3397,-328 132.3397,-334 132.3397,-340 132.3397,-340 132.3397,-424 132.3397,-424 132.3397,-430 126.3397,-436 120.3397,-436 120.3397,-436 43.4458,-436 43.4458,-436 37.4458,-436 31.4458,-430 31.4458,-424 31.4458,-424 31.4458,-340 31.4458,-340 31.4458,-334 37.4458,-328 43.4458,-328"/>
<text text-anchor="middle" x="81.8927" y="-423.2" font-family="Times,serif" font-size="11.00" fill="#c0c0c0">Cake</text>
</g>
<g id="clust12" class="cluster">
<title>cluster_Global\Cake\View</title>
<path fill="none" stroke="#c0c0c0" d="M51.4458,-336C51.4458,-336 112.3397,-336 112.3397,-336 118.3397,-336 124.3397,-342 124.3397,-348 124.3397,-348 124.3397,-396 124.3397,-396 124.3397,-402 118.3397,-408 112.3397,-408 112.3397,-408 51.4458,-408 51.4458,-408 45.4458,-408 39.4458,-402 39.4458,-396 39.4458,-396 39.4458,-348 39.4458,-348 39.4458,-342 45.4458,-336 51.4458,-336"/>
<text text-anchor="middle" x="81.8927" y="-395.2" font-family="Times,serif" font-size="11.00" fill="#c0c0c0">View</text>
</g>
<!-- \\Assets\\Routing\\Middleware\\AssetMiddleware -->
<g id="node1" class="node">
<title>\\Assets\\Routing\\Middleware\\AssetMiddleware</title>
<polygon fill="none" stroke="#000000" points="377.2855,-656 259.2855,-656 259.2855,-620 377.2855,-620 377.2855,-656"/>
<text text-anchor="middle" x="318.2855" y="-635.2" font-family="Courier,monospace" font-size="11.00" fill="#000000">AssetMiddleware</text>
</g>
<!-- \\Assets\\TestSuite\\TestCase -->
<g id="node2" class="node">
<title>\\Assets\\TestSuite\\TestCase</title>
<polygon fill="none" stroke="#000000" points="360.2855,-568 276.2855,-568 276.2855,-532 360.2855,-532 360.2855,-568"/>
<text text-anchor="start" x="284.2855" y="-553.2" font-family="Courier,monospace" font-size="11.00" fill="#000000">«abstract»</text>
<text text-anchor="start" x="290.7855" y="-541.2" font-family="Courier,monospace" font-size="11.00" fill="#000000">TestCase</text>
</g>
<!-- TestCase -->
<g id="node8" class="node">
<title>TestCase</title>
<ellipse fill="none" stroke="#000000" cx="81.8927" cy="-126" rx="42.7926" ry="18"/>
<text text-anchor="middle" x="81.8927" y="-122.3" font-family="Times,serif" font-size="14.00" fill="#000000">TestCase</text>
</g>
<!-- \\Assets\\TestSuite\\TestCase&#45;&gt;TestCase -->
<g id="edge1" class="edge">
<title>\\Assets\\TestSuite\\TestCase&#45;&gt;TestCase</title>
<path fill="none" stroke="#000000" d="M276.0724,-547.9347C254.1325,-544.6809 228.487,-537.1174 211.7855,-520 151.562,-458.2767 190.4356,-414.0147 163.7855,-332 142.5594,-266.6776 111.1291,-192.3179 94.0374,-153.2671"/>
<polygon fill="none" stroke="#000000" points="97.1473,-151.6444 89.9161,-143.901 90.7402,-154.4638 97.1473,-151.6444"/>
</g>
<!-- \\Assets\\Utility\\AssetsCreator -->
<g id="node3" class="node">
<title>\\Assets\\Utility\\AssetsCreator</title>
<polygon fill="none" stroke="#000000" points="370.2855,-488 266.2855,-488 266.2855,-452 370.2855,-452 370.2855,-488"/>
<text text-anchor="middle" x="318.2855" y="-467.2" font-family="Courier,monospace" font-size="11.00" fill="#000000">AssetsCreator</text>
</g>
<!-- \\Assets\\Http\\Exception\\AssetNotFoundException -->
<g id="node4" class="node">
<title>\\Assets\\Http\\Exception\\AssetNotFoundException</title>
<polygon fill="none" stroke="#000000" points="400.7855,-264 235.7855,-264 235.7855,-228 400.7855,-228 400.7855,-264"/>
<text text-anchor="middle" x="318.2855" y="-243.2" font-family="Courier,monospace" font-size="11.00" fill="#000000">AssetNotFoundException</text>
</g>
<!-- NotFoundException -->
<g id="node9" class="node">
<title>NotFoundException</title>
<ellipse fill="none" stroke="#000000" cx="81.8927" cy="-72" rx="81.7856" ry="18"/>
<text text-anchor="middle" x="81.8927" y="-68.3" font-family="Times,serif" font-size="14.00" fill="#000000">NotFoundException</text>
</g>
<!-- \\Assets\\Http\\Exception\\AssetNotFoundException&#45;&gt;NotFoundException -->
<g id="edge2" class="edge">
<title>\\Assets\\Http\\Exception\\AssetNotFoundException&#45;&gt;NotFoundException</title>
<path fill="none" stroke="#000000" d="M235.5625,-237.7505C226.9236,-234.397 218.7657,-229.9265 211.7855,-224 166.4203,-185.4834 206.867,-140.055 163.7855,-99 159.7892,-95.1917 155.245,-91.9203 150.3937,-89.1101"/>
<polygon fill="none" stroke="#000000" points="151.8827,-85.9409 141.3818,-84.5337 148.7132,-92.1822 151.8827,-85.9409"/>
</g>
<!-- \\Assets\\View\\Helper\\AssetHelper -->
<g id="node5" class="node">
<title>\\Assets\\View\\Helper\\AssetHelper</title>
<polygon fill="none" stroke="#000000" points="363.7855,-380 272.7855,-380 272.7855,-344 363.7855,-344 363.7855,-380"/>
<text text-anchor="middle" x="318.2855" y="-359.2" font-family="Courier,monospace" font-size="11.00" fill="#000000">AssetHelper</text>
</g>
<!-- Helper -->
<g id="node7" class="node">
<title>Helper</title>
<ellipse fill="none" stroke="#000000" cx="81.8927" cy="-362" rx="34.394" ry="18"/>
<text text-anchor="middle" x="81.8927" y="-358.3" font-family="Times,serif" font-size="14.00" fill="#c0c0c0">Helper</text>
</g>
<!-- \\Assets\\View\\Helper\\AssetHelper&#45;&gt;Helper -->
<g id="edge4" class="edge">
<title>\\Assets\\View\\Helper\\AssetHelper&#45;&gt;Helper</title>
<path fill="none" stroke="#000000" d="M272.7066,-362C230.6539,-362 168.5782,-362 126.755,-362"/>
<polygon fill="none" stroke="#000000" points="126.5829,-358.5001 116.5828,-362 126.5828,-365.5001 126.5829,-358.5001"/>
</g>
<!-- \\Assets\\Plugin -->
<g id="node6" class="node">
<title>\\Assets\\Plugin</title>
<polygon fill="none" stroke="#000000" points="346.7855,-204 289.7855,-204 289.7855,-168 346.7855,-168 346.7855,-204"/>
<text text-anchor="middle" x="318.2855" y="-183.2" font-family="Courier,monospace" font-size="11.00" fill="#000000">Plugin</text>
</g>
<!-- BasePlugin -->
<g id="node10" class="node">
<title>BasePlugin</title>
<ellipse fill="none" stroke="#000000" cx="81.8927" cy="-18" rx="50.8918" ry="18"/>
<text text-anchor="middle" x="81.8927" y="-14.3" font-family="Times,serif" font-size="14.00" fill="#000000">BasePlugin</text>
</g>
<!-- \\Assets\\Plugin&#45;&gt;BasePlugin -->
<g id="edge3" class="edge">
<title>\\Assets\\Plugin&#45;&gt;BasePlugin</title>
<path fill="none" stroke="#000000" d="M303.0264,-167.7858C277.2319,-138.078 222.0931,-79.0938 163.7855,-45 154.5797,-39.6172 144.1563,-35.1394 133.9057,-31.4799"/>
<polygon fill="none" stroke="#000000" points="134.77,-28.0783 124.1761,-28.2191 132.5456,-34.7154 134.77,-28.0783"/>
</g>
</g>
</svg>
