<?xml version="1.0" encoding="UTF-8" standalone="no"?>
<!DOCTYPE svg PUBLIC "-//W3C//DTD SVG 1.1//EN"
 "http://www.w3.org/Graphics/SVG/1.1/DTD/svg11.dtd">
<!-- Generated by graphviz version 2.40.1 (20161225.0304)
 -->
<!-- Title: G Pages: 1 -->
<svg width="450pt" height="534pt"
 viewBox="0.00 0.00 449.59 534.00" xmlns="http://www.w3.org/2000/svg" xmlns:xlink="http://www.w3.org/1999/xlink">
<g id="graph0" class="graph" transform="scale(1 1) rotate(0) translate(4 530)">
<title>G</title>
<polygon fill="#ffffff" stroke="transparent" points="-4,4 -4,-530 445.5882,-530 445.5882,4 -4,4"/>
<g id="clust1" class="cluster">
<title>cluster_Global</title>
<path fill="none" stroke="#c0c0c0" d="M20,-98C20,-98 421.5882,-98 421.5882,-98 427.5882,-98 433.5882,-104 433.5882,-110 433.5882,-110 433.5882,-506 433.5882,-506 433.5882,-512 427.5882,-518 421.5882,-518 421.5882,-518 20,-518 20,-518 14,-518 8,-512 8,-506 8,-506 8,-110 8,-110 8,-104 14,-98 20,-98"/>
<text text-anchor="middle" x="220.7941" y="-505.2" font-family="Times,serif" font-size="11.00" fill="#c0c0c0">Global</text>
</g>
<g id="clust2" class="cluster">
<title>cluster_\Assets</title>
<path fill="none" stroke="#c0c0c0" d="M224.5882,-106C224.5882,-106 413.5882,-106 413.5882,-106 419.5882,-106 425.5882,-112 425.5882,-118 425.5882,-118 425.5882,-478 425.5882,-478 425.5882,-484 419.5882,-490 413.5882,-490 413.5882,-490 224.5882,-490 224.5882,-490 218.5882,-490 212.5882,-484 212.5882,-478 212.5882,-478 212.5882,-118 212.5882,-118 212.5882,-112 218.5882,-106 224.5882,-106"/>
<text text-anchor="middle" x="319.0882" y="-477.2" font-family="Times,serif" font-size="11.00" fill="#c0c0c0">Assets</text>
</g>
<g id="clust3" class="cluster">
<title>cluster_\Assets\Routing</title>
<path fill="none" stroke="#c0c0c0" d="M256.0882,-354C256.0882,-354 382.0882,-354 382.0882,-354 388.0882,-354 394.0882,-360 394.0882,-366 394.0882,-366 394.0882,-450 394.0882,-450 394.0882,-456 388.0882,-462 382.0882,-462 382.0882,-462 256.0882,-462 256.0882,-462 250.0882,-462 244.0882,-456 244.0882,-450 244.0882,-450 244.0882,-366 244.0882,-366 244.0882,-360 250.0882,-354 256.0882,-354"/>
<text text-anchor="middle" x="319.0882" y="-449.2" font-family="Times,serif" font-size="11.00" fill="#c0c0c0">Routing</text>
</g>
<g id="clust4" class="cluster">
<title>cluster_\Assets\Routing\Middleware</title>
<path fill="none" stroke="#c0c0c0" d="M264.0882,-362C264.0882,-362 374.0882,-362 374.0882,-362 380.0882,-362 386.0882,-368 386.0882,-374 386.0882,-374 386.0882,-422 386.0882,-422 386.0882,-428 380.0882,-434 374.0882,-434 374.0882,-434 264.0882,-434 264.0882,-434 258.0882,-434 252.0882,-428 252.0882,-422 252.0882,-422 252.0882,-374 252.0882,-374 252.0882,-368 258.0882,-362 264.0882,-362"/>
<text text-anchor="middle" x="319.0882" y="-421.2" font-family="Times,serif" font-size="11.00" fill="#c0c0c0">Middleware</text>
</g>
<g id="clust5" class="cluster">
<title>cluster_\Assets\TestSuite</title>
<path fill="none" stroke="#c0c0c0" d="M281.0882,-230C281.0882,-230 357.0882,-230 357.0882,-230 363.0882,-230 369.0882,-236 369.0882,-242 369.0882,-242 369.0882,-290 369.0882,-290 369.0882,-296 363.0882,-302 357.0882,-302 357.0882,-302 281.0882,-302 281.0882,-302 275.0882,-302 269.0882,-296 269.0882,-290 269.0882,-290 269.0882,-242 269.0882,-242 269.0882,-236 275.0882,-230 281.0882,-230"/>
<text text-anchor="middle" x="319.0882" y="-289.2" font-family="Times,serif" font-size="11.00" fill="#c0c0c0">TestSuite</text>
</g>
<g id="clust6" class="cluster">
<title>cluster_\Assets\Http</title>
<path fill="none" stroke="#c0c0c0" d="M232.5882,-114C232.5882,-114 405.5882,-114 405.5882,-114 411.5882,-114 417.5882,-120 417.5882,-126 417.5882,-126 417.5882,-210 417.5882,-210 417.5882,-216 411.5882,-222 405.5882,-222 405.5882,-222 232.5882,-222 232.5882,-222 226.5882,-222 220.5882,-216 220.5882,-210 220.5882,-210 220.5882,-126 220.5882,-126 220.5882,-120 226.5882,-114 232.5882,-114"/>
<text text-anchor="middle" x="319.0882" y="-209.2" font-family="Times,serif" font-size="11.00" fill="#c0c0c0">Http</text>
</g>
<g id="clust7" class="cluster">
<title>cluster_\Assets\Http\Exception</title>
<path fill="none" stroke="#c0c0c0" d="M240.5882,-122C240.5882,-122 397.5882,-122 397.5882,-122 403.5882,-122 409.5882,-128 409.5882,-134 409.5882,-134 409.5882,-182 409.5882,-182 409.5882,-188 403.5882,-194 397.5882,-194 397.5882,-194 240.5882,-194 240.5882,-194 234.5882,-194 228.5882,-188 228.5882,-182 228.5882,-182 228.5882,-134 228.5882,-134 228.5882,-128 234.5882,-122 240.5882,-122"/>
<text text-anchor="middle" x="319.0882" y="-181.2" font-family="Times,serif" font-size="11.00" fill="#c0c0c0">Exception</text>
</g>
<g id="clust8" class="cluster">
<title>cluster_Global\Cake</title>
<path fill="none" stroke="#c0c0c0" d="M28,-294C28,-294 137.391,-294 137.391,-294 143.391,-294 149.391,-300 149.391,-306 149.391,-306 149.391,-390 149.391,-390 149.391,-396 143.391,-402 137.391,-402 137.391,-402 28,-402 28,-402 22,-402 16,-396 16,-390 16,-390 16,-306 16,-306 16,-300 22,-294 28,-294"/>
<text text-anchor="middle" x="82.6955" y="-389.2" font-family="Times,serif" font-size="11.00" fill="#c0c0c0">Cake</text>
</g>
<g id="clust9" class="cluster">
<title>cluster_Global\Cake\Core</title>
<path fill="none" stroke="#c0c0c0" d="M36,-302C36,-302 129.391,-302 129.391,-302 135.391,-302 141.391,-308 141.391,-314 141.391,-314 141.391,-362 141.391,-362 141.391,-368 135.391,-374 129.391,-374 129.391,-374 36,-374 36,-374 30,-374 24,-368 24,-362 24,-362 24,-314 24,-314 24,-308 30,-302 36,-302"/>
<text text-anchor="middle" x="82.6955" y="-361.2" font-family="Times,serif" font-size="11.00" fill="#c0c0c0">Core</text>
</g>
<!-- \\Assets\\Routing\\Middleware\\AssetMiddleware -->
<g id="node1" class="node">
<title>\\Assets\\Routing\\Middleware\\AssetMiddleware</title>
<polygon fill="none" stroke="#000000" points="378.0882,-406 260.0882,-406 260.0882,-370 378.0882,-370 378.0882,-406"/>
<text text-anchor="middle" x="319.0882" y="-385.2" font-family="Courier,monospace" font-size="11.00" fill="#000000">AssetMiddleware</text>
</g>
<!-- \\Assets\\TestSuite\\TestCase -->
<g id="node2" class="node">
<title>\\Assets\\TestSuite\\TestCase</title>
<polygon fill="none" stroke="#000000" points="361.0882,-274 277.0882,-274 277.0882,-238 361.0882,-238 361.0882,-274"/>
<text text-anchor="start" x="285.0882" y="-259.2" font-family="Courier,monospace" font-size="11.00" fill="#000000">«abstract»</text>
<text text-anchor="start" x="291.5882" y="-247.2" font-family="Courier,monospace" font-size="11.00" fill="#000000">TestCase</text>
</g>
<!-- TestCase -->
<g id="node6" class="node">
<title>TestCase</title>
<ellipse fill="none" stroke="#000000" cx="82.6955" cy="-72" rx="42.7926" ry="18"/>
<text text-anchor="middle" x="82.6955" y="-68.3" font-family="Times,serif" font-size="14.00" fill="#000000">TestCase</text>
</g>
<!-- \\Assets\\TestSuite\\TestCase&#45;&gt;TestCase -->
<g id="edge1" class="edge">
<title>\\Assets\\TestSuite\\TestCase&#45;&gt;TestCase</title>
<path fill="none" stroke="#000000" d="M280.1138,-237.9833C259.2586,-227.5655 233.6146,-213.474 212.5882,-198 170.673,-167.1531 128.6164,-123.4709 104.1509,-96.4792"/>
<polygon fill="none" stroke="#000000" points="106.7225,-94.1044 97.4371,-89.0023 101.5141,-98.7813 106.7225,-94.1044"/>
</g>
<!-- \\Assets\\Http\\Exception\\AssetNotFoundException -->
<g id="node3" class="node">
<title>\\Assets\\Http\\Exception\\AssetNotFoundException</title>
<polygon fill="none" stroke="#000000" points="401.5882,-166 236.5882,-166 236.5882,-130 401.5882,-130 401.5882,-166"/>
<text text-anchor="middle" x="319.0882" y="-145.2" font-family="Courier,monospace" font-size="11.00" fill="#000000">AssetNotFoundException</text>
</g>
<!-- NotFoundException -->
<g id="node7" class="node">
<title>NotFoundException</title>
<ellipse fill="none" stroke="#000000" cx="82.6955" cy="-18" rx="81.7856" ry="18"/>
<text text-anchor="middle" x="82.6955" y="-14.3" font-family="Times,serif" font-size="14.00" fill="#000000">NotFoundException</text>
</g>
<!-- \\Assets\\Http\\Exception\\AssetNotFoundException&#45;&gt;NotFoundException -->
<g id="edge2" class="edge">
<title>\\Assets\\Http\\Exception\\AssetNotFoundException&#45;&gt;NotFoundException</title>
<path fill="none" stroke="#000000" d="M296.2026,-129.851C267.0457,-107.4293 214.4377,-69.2795 164.5882,-45 157.6801,-41.6353 150.25,-38.5345 142.785,-35.7269"/>
<polygon fill="none" stroke="#000000" points="143.9416,-32.4235 133.3472,-32.3298 141.5708,-39.0098 143.9416,-32.4235"/>
</g>
<!-- \\Assets\\Plugin -->
<g id="node4" class="node">
<title>\\Assets\\Plugin</title>
<polygon fill="none" stroke="#000000" points="347.5882,-346 290.5882,-346 290.5882,-310 347.5882,-310 347.5882,-346"/>
<text text-anchor="middle" x="319.0882" y="-325.2" font-family="Courier,monospace" font-size="11.00" fill="#000000">Plugin</text>
</g>
<!-- BasePlugin -->
<g id="node5" class="node">
<title>BasePlugin</title>
<ellipse fill="none" stroke="#000000" cx="82.6955" cy="-328" rx="50.8918" ry="18"/>
<text text-anchor="middle" x="82.6955" y="-324.3" font-family="Times,serif" font-size="14.00" fill="#c0c0c0">BasePlugin</text>
</g>
<!-- \\Assets\\Plugin&#45;&gt;BasePlugin -->
<g id="edge3" class="edge">
<title>\\Assets\\Plugin&#45;&gt;BasePlugin</title>
<path fill="none" stroke="#000000" d="M290.5737,-328C254.4218,-328 191.1154,-328 143.8345,-328"/>
<polygon fill="none" stroke="#000000" points="143.7027,-324.5001 133.7027,-328 143.7027,-331.5001 143.7027,-324.5001"/>
</g>
</g>
</svg>
